<mxfile host="app.diagrams.net" modified="2024-05-16T15:13:58.121Z" agent="Mozilla/5.0 (Macintosh; Intel Mac OS X 10_15_7) AppleWebKit/537.36 (KHTML, like Gecko) Chrome/124.0.0.0 Safari/537.36" etag="r-55PUDdQ89bT3hfFaWj" version="24.4.2" type="device">
  <diagram name="Страница — 1" id="owry5vQvlUHVTqCDbtqu">
    <mxGraphModel dx="3411" dy="2257" grid="1" gridSize="10" guides="1" tooltips="1" connect="1" arrows="1" fold="1" page="1" pageScale="1" pageWidth="827" pageHeight="1169" math="0" shadow="0">
      <root>
        <mxCell id="0" />
        <mxCell id="1" parent="0" />
        <mxCell id="ZxgzLz1qFdCRVgFTvN7u-14" style="edgeStyle=orthogonalEdgeStyle;rounded=0;orthogonalLoop=1;jettySize=auto;html=1;entryX=1;entryY=0.5;entryDx=0;entryDy=0;fontFamily=Helvetica;fontSize=12;fontColor=default;fontStyle=1;" edge="1" parent="1" source="2" target="3">
          <mxGeometry relative="1" as="geometry" />
        </mxCell>
        <mxCell id="ZxgzLz1qFdCRVgFTvN7u-25" style="edgeStyle=orthogonalEdgeStyle;rounded=0;orthogonalLoop=1;jettySize=auto;html=1;entryX=0;entryY=0.5;entryDx=0;entryDy=0;fontFamily=Helvetica;fontSize=12;fontColor=default;fontStyle=1;exitX=0.5;exitY=1;exitDx=0;exitDy=0;" edge="1" parent="1" source="2" target="ZxgzLz1qFdCRVgFTvN7u-8">
          <mxGeometry relative="1" as="geometry" />
        </mxCell>
        <mxCell id="ZxgzLz1qFdCRVgFTvN7u-29" style="edgeStyle=orthogonalEdgeStyle;rounded=0;orthogonalLoop=1;jettySize=auto;html=1;entryX=1;entryY=0.5;entryDx=0;entryDy=0;fontFamily=Helvetica;fontSize=12;fontColor=default;fontStyle=1;exitX=0.5;exitY=0;exitDx=0;exitDy=0;" edge="1" parent="1" source="2" target="ZxgzLz1qFdCRVgFTvN7u-26">
          <mxGeometry relative="1" as="geometry" />
        </mxCell>
        <mxCell id="2" value="Пользователь" style="shape=table;startSize=75;container=1;collapsible=0;childLayout=tableLayout;fixedRows=1;rowLines=1;fontStyle=1;align=center;resizeLast=1;strokeColor=#9999FF;strokeWidth=3;" parent="1" vertex="1">
          <mxGeometry x="252" y="387" width="100" height="75" as="geometry" />
        </mxCell>
        <mxCell id="3" value="Заказ блюд" style="shape=table;startSize=75;container=1;collapsible=0;childLayout=tableLayout;fixedRows=1;rowLines=1;fontStyle=1;align=center;resizeLast=1;strokeColor=#FFCCE6;strokeWidth=3;" parent="1" vertex="1">
          <mxGeometry x="152" y="487" width="100" height="75" as="geometry" />
        </mxCell>
        <mxCell id="ZxgzLz1qFdCRVgFTvN7u-8" value="Регистрация" style="shape=table;startSize=75;container=1;collapsible=0;childLayout=tableLayout;fixedRows=1;rowLines=1;fontStyle=1;align=center;resizeLast=1;strokeColor=#FFCCE6;strokeWidth=3;" vertex="1" parent="1">
          <mxGeometry x="352" y="487" width="100" height="75" as="geometry" />
        </mxCell>
        <mxCell id="ZxgzLz1qFdCRVgFTvN7u-13" style="edgeStyle=orthogonalEdgeStyle;rounded=0;orthogonalLoop=1;jettySize=auto;html=1;fontFamily=Helvetica;fontSize=12;fontColor=default;fontStyle=1;" edge="1" parent="1" source="ZxgzLz1qFdCRVgFTvN7u-11" target="ZxgzLz1qFdCRVgFTvN7u-8">
          <mxGeometry relative="1" as="geometry" />
        </mxCell>
        <mxCell id="ZxgzLz1qFdCRVgFTvN7u-17" style="edgeStyle=orthogonalEdgeStyle;rounded=0;orthogonalLoop=1;jettySize=auto;html=1;entryX=1;entryY=0.5;entryDx=0;entryDy=0;fontFamily=Helvetica;fontSize=12;fontColor=default;fontStyle=1;exitX=0.5;exitY=1;exitDx=0;exitDy=0;" edge="1" parent="1" source="ZxgzLz1qFdCRVgFTvN7u-11" target="ZxgzLz1qFdCRVgFTvN7u-16">
          <mxGeometry relative="1" as="geometry" />
        </mxCell>
        <mxCell id="ZxgzLz1qFdCRVgFTvN7u-20" style="edgeStyle=orthogonalEdgeStyle;rounded=0;orthogonalLoop=1;jettySize=auto;html=1;entryX=0;entryY=0.5;entryDx=0;entryDy=0;fontFamily=Helvetica;fontSize=12;fontColor=default;fontStyle=1;exitX=0.5;exitY=1;exitDx=0;exitDy=0;" edge="1" parent="1" source="ZxgzLz1qFdCRVgFTvN7u-11" target="ZxgzLz1qFdCRVgFTvN7u-19">
          <mxGeometry relative="1" as="geometry" />
        </mxCell>
        <mxCell id="ZxgzLz1qFdCRVgFTvN7u-11" value="Ресторан" style="shape=table;startSize=75;container=1;collapsible=0;childLayout=tableLayout;fixedRows=1;rowLines=1;fontStyle=1;align=center;resizeLast=1;strokeColor=#9999FF;strokeWidth=3;" vertex="1" parent="1">
          <mxGeometry x="248" y="697" width="100" height="75" as="geometry" />
        </mxCell>
        <mxCell id="ZxgzLz1qFdCRVgFTvN7u-16" value="Создание&#xa;меню" style="shape=table;startSize=75;container=1;collapsible=0;childLayout=tableLayout;fixedRows=1;rowLines=1;fontStyle=1;align=center;resizeLast=1;strokeColor=#FFCCE6;strokeWidth=3;" vertex="1" parent="1">
          <mxGeometry x="148" y="807" width="100" height="75" as="geometry" />
        </mxCell>
        <mxCell id="ZxgzLz1qFdCRVgFTvN7u-19" value="Приём&#xa;заказов" style="shape=table;startSize=75;container=1;collapsible=0;childLayout=tableLayout;fixedRows=1;rowLines=1;fontStyle=1;align=center;resizeLast=1;strokeColor=#FFCCE6;strokeWidth=3;" vertex="1" parent="1">
          <mxGeometry x="348" y="807" width="100" height="75" as="geometry" />
        </mxCell>
        <mxCell id="ZxgzLz1qFdCRVgFTvN7u-23" style="edgeStyle=orthogonalEdgeStyle;rounded=0;orthogonalLoop=1;jettySize=auto;html=1;entryX=1;entryY=0.5;entryDx=0;entryDy=0;fontFamily=Helvetica;fontSize=12;fontColor=default;fontStyle=1;" edge="1" parent="1" source="ZxgzLz1qFdCRVgFTvN7u-21" target="ZxgzLz1qFdCRVgFTvN7u-8">
          <mxGeometry relative="1" as="geometry" />
        </mxCell>
        <mxCell id="ZxgzLz1qFdCRVgFTvN7u-30" style="edgeStyle=orthogonalEdgeStyle;rounded=0;orthogonalLoop=1;jettySize=auto;html=1;fontFamily=Helvetica;fontSize=12;fontColor=default;fontStyle=1;" edge="1" parent="1" source="ZxgzLz1qFdCRVgFTvN7u-21" target="ZxgzLz1qFdCRVgFTvN7u-24">
          <mxGeometry relative="1" as="geometry" />
        </mxCell>
        <mxCell id="ZxgzLz1qFdCRVgFTvN7u-21" value="Курьер" style="shape=table;startSize=75;container=1;collapsible=0;childLayout=tableLayout;fixedRows=1;rowLines=1;fontStyle=1;align=center;resizeLast=1;strokeColor=#9999FF;strokeWidth=3;" vertex="1" parent="1">
          <mxGeometry x="578" y="627" width="100" height="75" as="geometry" />
        </mxCell>
        <mxCell id="ZxgzLz1qFdCRVgFTvN7u-24" value="Получение&#xa;заказов" style="shape=table;startSize=75;container=1;collapsible=0;childLayout=tableLayout;fixedRows=1;rowLines=1;fontStyle=1;align=center;resizeLast=1;strokeColor=#FFCCE6;strokeWidth=3;" vertex="1" parent="1">
          <mxGeometry x="578" y="507" width="100" height="75" as="geometry" />
        </mxCell>
        <mxCell id="ZxgzLz1qFdCRVgFTvN7u-26" value="Создание&#xa;отзывов" style="shape=table;startSize=75;container=1;collapsible=0;childLayout=tableLayout;fixedRows=1;rowLines=1;fontStyle=1;align=center;resizeLast=1;strokeColor=#FFCCE6;strokeWidth=3;" vertex="1" parent="1">
          <mxGeometry x="148" y="287" width="100" height="75" as="geometry" />
        </mxCell>
      </root>
    </mxGraphModel>
  </diagram>
</mxfile>
